<svg width="31" height="31" viewBox="0 0 31 31" fill="none" xmlns="http://www.w3.org/2000/svg">
<g clip-path="url(#clip0)">
<path d="M31.0008 15.5954C31.0008 6.98129 24.0607 -0.00146484 15.5008 -0.00146484C6.93707 0.000472656 -0.00305176 6.98129 -0.00305176 15.5973C-0.00305176 23.3803 5.66607 29.8322 13.0751 31.0024V20.104H9.14195V15.5973H13.0789V12.1583C13.0789 8.25035 15.3943 6.09197 18.9341 6.09197C20.6313 6.09197 22.4041 6.39616 22.4041 6.39616V10.2324H20.4492C18.5253 10.2324 17.9246 11.4356 17.9246 12.6698V15.5954H22.222L21.5361 20.102H17.9227V31.0005C25.3317 29.8302 31.0008 23.3783 31.0008 15.5954Z" fill="white"/>
</g>
<defs>
<clipPath id="clip0">
<rect width="31" height="31" fill="white"/>
</clipPath>
</defs>
</svg>
